<?xml version="1.0" encoding="UTF-8"?>
<svg version="1.1" xmlns="http://www.w3.org/2000/svg" width="512" height="512">
<path d="M0 0 C19.66970569 17.71857225 32.19213581 40.3518228 38.26611328 65.99072266 C38.49169922 66.92916016 38.71728516 67.86759766 38.94970703 68.83447266 C44.97781466 99.76490077 38.05852618 133.3672678 20.91845703 159.67822266 C2.29074919 187.13115212 -24.5190572 205.35887614 -56.73388672 212.99072266 C-57.67232422 213.21630859 -58.61076172 213.44189453 -59.57763672 213.67431641 C-90.50806484 219.70242404 -124.11043186 212.78313556 -150.42138672 195.64306641 C-177.87431618 177.01535856 -196.1020402 150.20555218 -203.73388672 117.99072266 C-203.95947266 117.05228516 -204.18505859 116.11384766 -204.41748047 115.14697266 C-210.4455881 84.21654454 -203.52629962 50.61417752 -186.38623047 24.30322266 C-167.75852262 -3.14970681 -140.94871624 -21.37743083 -108.73388672 -29.00927734 C-107.79544922 -29.23486328 -106.85701172 -29.46044922 -105.89013672 -29.69287109 C-67.94693656 -37.08771521 -28.77846772 -25.10732754 0 0 Z " fill="#f1d23a" transform="translate(338.73388671875,164.00927734375)"/>
<path d="M0 0 C4.83238439 2.52506668 8.38980174 6.01818704 12.18701172 9.87866211 C12.90341827 10.59361343 13.61982483 11.30856476 14.35794067 12.04518127 C15.86016974 13.54906132 17.3574936 15.05785572 18.85009766 16.57128906 C21.13420338 18.88447144 23.43652982 21.17828682 25.74169922 23.47045898 C27.20375399 24.93874834 28.66472988 26.40811297 30.12451172 27.87866211 C31.15413528 28.90388222 31.15413528 28.90388222 32.20455933 29.94981384 C36.87759365 34.71623471 39.52254461 38.44786458 39.63232422 45.32006836 C39.50000741 50.55047417 38.48396934 53.30834385 35.25732422 57.44506836 C30.2670255 61.41693877 26.29961697 61.903213 20.00341797 61.97631836 C13.28314846 60.67623777 8.4448367 54.95276703 3.77685547 50.30053711 C3.08218674 49.61252518 2.38751801 48.92451324 1.67179871 48.21565247 C0.21111532 46.76505374 -1.24690403 45.31176805 -2.70239258 43.85595703 C-4.92320151 41.63952888 -7.15951976 39.43959934 -9.39697266 37.23999023 C-10.81917558 35.82365487 -12.24043197 34.40636828 -13.66064453 32.98803711 C-14.32629929 32.33675339 -14.99195404 31.68546967 -15.67778015 31.01445007 C-20.50900541 26.13535949 -23.29236029 21.98326152 -24.18017578 15.00756836 C-23.43513951 8.94084442 -21.48869108 4.83475401 -16.68017578 1.00756836 C-11.0568939 -1.98353903 -5.87581688 -2.8178069 0 0 Z " fill="#f1d23a" transform="translate(383.74267578125,361.554931640625)"/>
<path d="M0 0 C3.77751439 4.13727767 5.65574707 7.65168173 5.6015625 13.33203125 C3.97622643 25.08862879 -7.64662989 33.33296151 -15.64624023 41.33154297 C-17.57369691 43.26120975 -19.49298108 45.19877307 -21.41210938 47.13671875 C-22.64274003 48.37027984 -23.873843 49.60336994 -25.10546875 50.8359375 C-25.67533005 51.41298431 -26.24519135 51.99003113 -26.83232117 52.58456421 C-31.37648265 57.10272404 -34.27381321 59.15928307 -40.6875 59.25 C-46.17525463 59.1256109 -49.06928289 58.30199933 -53.375 54.875 C-57.34687041 49.88470128 -57.83314464 45.91729275 -57.90625 39.62109375 C-56.61286621 32.93544079 -50.91138001 28.0653205 -46.30078125 23.39453125 C-45.61751266 22.69986252 -44.93424408 22.00519379 -44.23027039 21.28947449 C-42.7882421 19.82863039 -41.3433442 18.370614 -39.89575195 16.9152832 C-37.69765337 14.69774317 -35.52182761 12.4597825 -33.34570312 10.22070312 C-31.93622294 8.79816302 -30.5254567 7.37689577 -29.11328125 5.95703125 C-28.15183952 4.95854912 -28.15183952 4.95854912 -27.17097473 3.93989563 C-18.95520412 -4.1972356 -10.03909231 -6.32090997 0 0 Z " fill="#f1d23a" transform="translate(146.375,364.125)"/>
<path d="M0 0 C4.183286 2.6190384 7.20336184 5.53418578 9.5625 9.875 C10.44923346 16.20881041 9.95055069 20.94628548 6.29388428 26.29714966 C3.82850046 29.5417827 0.94639886 32.37947942 -1.92578125 35.26171875 C-2.59159714 35.93419144 -3.25741302 36.60666412 -3.94340515 37.29951477 C-5.3469264 38.7131183 -6.75313256 40.12406058 -8.16186523 41.5324707 C-10.30587142 43.68085788 -12.433361 45.84473909 -14.56054688 48.00976562 C-15.93130925 49.38639559 -17.30302296 50.76207908 -18.67578125 52.13671875 C-19.30519119 52.78049973 -19.93460114 53.4242807 -20.58308411 54.08757019 C-25.39489709 58.85062141 -29.56155889 61.56238022 -36.4375 62.4375 C-42.50422394 61.69246373 -46.61031435 59.7460153 -50.4375 54.9375 C-52.85844646 50.38612066 -53.42123522 47.1390697 -53 42 C-50.72633943 35.57533715 -46.65363513 31.05111881 -41.890625 26.32421875 C-41.20498474 25.63237991 -40.51934448 24.94054108 -39.81292725 24.22773743 C-38.36888994 22.77663518 -36.91975868 21.33058599 -35.46582031 19.8894043 C-33.25443316 17.69190531 -31.06813713 15.47143053 -28.8828125 13.24804688 C-27.47020187 11.83448511 -26.05618513 10.42232684 -24.640625 9.01171875 C-23.99450256 8.3523381 -23.34838013 7.69295746 -22.68267822 7.01359558 C-16.35198202 0.80941367 -8.8972562 -3.04827734 0 0 Z " fill="#f1d23a" transform="translate(413,90)"/>
<path d="M0 0 C3.24463305 2.46538382 6.08232976 5.34748541 8.96456909 8.21966553 C9.97327812 9.21838936 9.97327812 9.21838936 11.00236511 10.23728943 C12.41596864 11.64081068 13.82691092 13.04701684 15.23532104 14.45574951 C17.38370822 16.5997557 19.54758943 18.72724528 21.71261597 20.85443115 C23.08924593 22.22519353 24.46492942 23.59690724 25.83956909 24.96966553 C26.48335007 25.59907547 27.12713104 26.22848541 27.79042053 26.87696838 C32.55347175 31.68878137 35.26523056 35.85544317 36.14035034 42.73138428 C35.39531407 48.79810822 33.44886564 52.90419863 28.64035034 56.73138428 C24.088971 59.15233073 20.84192004 59.7151195 15.70285034 59.29388428 C9.26294062 57.01912461 4.75160796 52.93281168 0.02706909 48.14935303 C-0.66476974 47.46134109 -1.35660858 46.77332916 -2.06941223 46.06446838 C-3.52044085 44.61614666 -4.96649111 43.16282165 -6.40774536 41.70477295 C-8.60684902 39.48421224 -10.82653177 37.28585012 -13.04910278 35.08880615 C-14.46249668 33.67276941 -15.87464946 32.25549254 -17.28543091 30.83685303 C-17.94481155 30.18556931 -18.6041922 29.53428558 -19.28355408 28.86326599 C-23.72786643 24.32778004 -26.81462521 20.19527096 -27.61746216 13.70404053 C-27.11722507 7.69119074 -25.45999144 4.15376092 -21.18386841 -0.13970947 C-14.72297294 -5.50372413 -6.60002112 -4.51031361 0 0 Z " fill="#f1d23a" transform="translate(116.29714965820313,92.70611572265625)"/>
<path d="M0 0 C1.59229179 -0.01925285 1.59229179 -0.01925285 3.2167511 -0.03889465 C4.93706795 -0.04997505 4.93706795 -0.04997505 6.69213867 -0.0612793 C8.46230598 -0.07338692 8.46230598 -0.07338692 10.26823425 -0.08573914 C12.76734956 -0.09957719 15.26648375 -0.11030059 17.765625 -0.11816406 C21.58459301 -0.13538301 25.40269681 -0.17927417 29.22143555 -0.22338867 C31.64916356 -0.2335151 34.07689892 -0.24203136 36.50463867 -0.2487793 C37.64544388 -0.26628738 38.78624908 -0.28379547 39.96162415 -0.30183411 C46.23061158 -0.28470935 50.05846581 -0.07814636 54.79760742 4.17700195 C58.8790286 8.69965786 60.12125278 11.96846548 60.00854492 18.12231445 C59.51904994 22.89035812 57.26579785 25.96812873 53.73510742 28.98950195 C49.94889328 31.80902313 48.33929718 32.30534269 43.70874023 32.35400391 C42.64713684 32.36683914 41.58553345 32.37967438 40.49176025 32.39289856 C39.33972107 32.40028549 38.18768188 32.40767242 37.00073242 32.4152832 C35.22844269 32.42739082 35.22844269 32.42739082 33.42034912 32.43974304 C30.91525749 32.45359366 28.4101469 32.46431142 25.9050293 32.47216797 C22.07719021 32.48936902 18.25021718 32.53324682 14.42260742 32.57739258 C11.99032212 32.58752025 9.55802946 32.59603612 7.12573242 32.6027832 C5.40981903 32.62904533 5.40981903 32.62904533 3.65924072 32.65583801 C-2.61711927 32.63874463 -6.45885285 32.44004121 -11.20239258 28.17700195 C-15.28594074 23.65198912 -16.51868676 20.38634906 -16.41723633 14.23168945 C-15.82205254 8.53956814 -12.35207353 4.80797279 -8.20239258 1.17700195 C-5.19783639 0.17548322 -3.14211102 0.03309802 0 0 Z " fill="#f1d23a" transform="translate(426.202392578125,239.822998046875)"/>
<path d="M0 0 C1.59229179 -0.01925285 1.59229179 -0.01925285 3.2167511 -0.03889465 C4.93706795 -0.04997505 4.93706795 -0.04997505 6.69213867 -0.0612793 C8.46230598 -0.07338692 8.46230598 -0.07338692 10.26823425 -0.08573914 C12.76734956 -0.09957719 15.26648375 -0.11030059 17.765625 -0.11816406 C21.58459301 -0.13538301 25.40269681 -0.17927417 29.22143555 -0.22338867 C31.64916356 -0.2335151 34.07689892 -0.24203136 36.50463867 -0.2487793 C37.64544388 -0.26628738 38.78624908 -0.28379547 39.96162415 -0.30183411 C46.23061158 -0.28470935 50.05846581 -0.07814636 54.79760742 4.17700195 C58.8790286 8.69965786 60.12125278 11.96846548 60.00854492 18.12231445 C59.51904994 22.89035812 57.26579785 25.96812873 53.73510742 28.98950195 C49.94889328 31.80902313 48.33929718 32.30534269 43.70874023 32.35400391 C42.64713684 32.36683914 41.58553345 32.37967438 40.49176025 32.39289856 C39.33972107 32.40028549 38.18768188 32.40767242 37.00073242 32.4152832 C35.22844269 32.42739082 35.22844269 32.42739082 33.42034912 32.43974304 C30.91525749 32.45359366 28.4101469 32.46431142 25.9050293 32.47216797 C22.07719021 32.48936902 18.25021718 32.53324682 14.42260742 32.57739258 C11.99032212 32.58752025 9.55802946 32.59603612 7.12573242 32.6027832 C5.40981903 32.62904533 5.40981903 32.62904533 3.65924072 32.65583801 C-2.61711927 32.63874463 -6.45885285 32.44004121 -11.20239258 28.17700195 C-15.28594074 23.65198912 -16.51868676 20.38634906 -16.41723633 14.23168945 C-15.82205254 8.53956814 -12.35207353 4.80797279 -8.20239258 1.17700195 C-5.19783639 0.17548322 -3.14211102 0.03309802 0 0 Z " fill="#f1d23a" transform="translate(42.202392578125,239.822998046875)"/>
<path d="M0 0 C3.88446678 2.58964452 6.69907021 5.64814041 8.8125 9.875 C8.92327454 11.56869615 8.97166633 13.26664606 8.98950195 14.96386719 C9.00875481 16.55627228 9.00875481 16.55627228 9.02839661 18.18084717 C9.03578354 19.33288635 9.04317047 20.48492554 9.05078125 21.671875 C9.058853 22.85340149 9.06692474 24.03492798 9.07524109 25.2522583 C9.0890917 27.75734994 9.09980946 30.26246052 9.10766602 32.76757812 C9.12486706 36.59541721 9.16874487 40.42239024 9.21289062 44.25 C9.2230183 46.68228531 9.23153417 49.11457797 9.23828125 51.546875 C9.25578934 52.69081726 9.27329742 53.83475952 9.29133606 55.0133667 C9.2742374 61.29166305 9.07160377 65.12714661 4.8125 69.875 C0.59893861 73.77254428 -1.96173412 74.71012845 -7.5625 75.125 C-12.17373139 74.80698404 -15.33263413 73.74986443 -18.63671875 70.41015625 C-22.12514918 66.32199566 -23.30900944 64.06674944 -23.36450195 58.78613281 C-23.37733719 57.72452942 -23.39017242 56.66292603 -23.40339661 55.56915283 C-23.41078354 54.41711365 -23.41817047 53.26507446 -23.42578125 52.078125 C-23.433853 50.89659851 -23.44192474 49.71507202 -23.45024109 48.4977417 C-23.4640917 45.99265006 -23.47480946 43.48753948 -23.48266602 40.98242188 C-23.49986706 37.15458279 -23.54374487 33.32760976 -23.58789062 29.5 C-23.5980183 27.06771469 -23.60653417 24.63542203 -23.61328125 22.203125 C-23.63078934 21.05918274 -23.64829742 19.91524048 -23.66633606 18.7366333 C-23.64924268 12.4602733 -23.45053926 8.61853973 -19.1875 3.875 C-13.37010796 -1.37484159 -7.3959011 -2.61031804 0 0 Z " fill="#f1d23a" transform="translate(263.1875,411.125)"/>
<path d="M0 0 C3.88446678 2.58964452 6.69907021 5.64814041 8.8125 9.875 C8.92327454 11.56869615 8.97166633 13.26664606 8.98950195 14.96386719 C9.00875481 16.55627228 9.00875481 16.55627228 9.02839661 18.18084717 C9.03578354 19.33288635 9.04317047 20.48492554 9.05078125 21.671875 C9.058853 22.85340149 9.06692474 24.03492798 9.07524109 25.2522583 C9.0890917 27.75734994 9.09980946 30.26246052 9.10766602 32.76757812 C9.12486706 36.59541721 9.16874487 40.42239024 9.21289062 44.25 C9.2230183 46.68228531 9.23153417 49.11457797 9.23828125 51.546875 C9.25578934 52.69081726 9.27329742 53.83475952 9.29133606 55.0133667 C9.2742374 61.29166305 9.07160377 65.12714661 4.8125 69.875 C0.59893861 73.77254428 -1.96173412 74.71012845 -7.5625 75.125 C-12.17373139 74.80698404 -15.33263413 73.74986443 -18.63671875 70.41015625 C-22.12514918 66.32199566 -23.30900944 64.06674944 -23.36450195 58.78613281 C-23.37733719 57.72452942 -23.39017242 56.66292603 -23.40339661 55.56915283 C-23.41078354 54.41711365 -23.41817047 53.26507446 -23.42578125 52.078125 C-23.433853 50.89659851 -23.44192474 49.71507202 -23.45024109 48.4977417 C-23.4640917 45.99265006 -23.47480946 43.48753948 -23.48266602 40.98242188 C-23.49986706 37.15458279 -23.54374487 33.32760976 -23.58789062 29.5 C-23.5980183 27.06771469 -23.60653417 24.63542203 -23.61328125 22.203125 C-23.63078934 21.05918274 -23.64829742 19.91524048 -23.66633606 18.7366333 C-23.64924268 12.4602733 -23.45053926 8.61853973 -19.1875 3.875 C-13.37010796 -1.37484159 -7.3959011 -2.61031804 0 0 Z " fill="#f1d23a" transform="translate(263.1875,27.125)"/>
</svg>
